<?xml version="1.0" encoding="UTF-8"?>
<svg width="161px" height="49px" viewBox="0 0 161 49" version="1.1" xmlns="http://www.w3.org/2000/svg" xmlns:xlink="http://www.w3.org/1999/xlink">
    <title>beazley_logo_rgb_white</title>
    <g id="Symbols" stroke="none" stroke-width="1" fill="none" fill-rule="evenodd">
        <g id="Nav/Desktop" transform="translate(0.000000, -17.000000)" fill="#FFFFFF">
            <g id="Group" transform="translate(-0.000000, 17.000000)">
                <g id="Group" transform="translate(0.000000, 0.000000)">
                    <path d="M65.2410732,29.9872564 C64.0035495,30.9150655 62.9312291,31.5902301 61.6496511,31.5902301 C59.6808937,31.5902301 58.4373625,30.1447837 58.4373625,27.8472882 C58.4373625,25.3735756 59.5861103,24.3569906 61.4417284,23.6501202 L65.2410732,22.1042168 L65.2410732,29.9872564 Z M58.5695253,22.9432499 C55.2561121,24.1807736 52.5174067,25.7266771 52.5174067,29.5260218 C52.5174067,33.0603737 54.9030107,35.225039 58.4814168,35.225039 C61.6626672,35.225039 63.9594952,33.2813124 65.373236,31.4256942 C65.8151134,33.85602 67.4057386,35.313815 69.7913426,35.313815 C71.8678994,35.313815 73.5466331,34.4741144 74.8275436,32.9722652 L74.5625507,32.0004019 C74.076619,32.2213406 73.4585246,32.4422793 72.7957085,32.4422793 C71.6469607,32.4422793 71.3379135,31.4697485 71.3379135,29.9678993 L71.3379135,18.2608177 C71.3379135,13.0917865 68.2447717,11.0152296 62.5898087,11.0152296 C57.6864379,11.0152296 53.8864257,12.914902 53.8864257,16.5814166 C53.8864257,19.8087237 56.3404473,20.6237272 59.5437248,19.4072293 C58.4670658,16.2229752 58.9690172,12.4289704 62.1038771,12.4289704 C64.4013726,12.4289704 65.2410732,14.2398668 65.2410732,16.758301 L65.2410732,20.5135916 L58.5695253,22.9432499 L58.5695253,22.9432499 Z" id="Fill-1"></path>
                    <path d="M122.125114,12.6499091 C124.99665,12.6499091 126.101343,15.4773905 126.101343,19.6298367 L117.26513,19.6298367 C117.618899,15.565499 119.209524,12.6499091 122.125114,12.6499091 Z M122.346053,35.313815 C127.426976,35.313815 130.651613,32.309449 131.800361,27.9360641 L131.09349,27.538241 C129.502865,29.8357365 127.515084,31.116647 124.510718,31.116647 C120.181387,31.116647 117.000137,27.449465 117.177022,21.2645162 L131.579422,21.2645162 L131.579422,20.2485986 C131.579422,14.9467371 128.486947,11.0152296 122.566992,11.0152296 C116.514205,11.0152296 111.654889,16.2283151 111.654889,23.7829504 C111.654889,30.5866611 115.940165,35.313815 122.346053,35.313815 L122.346053,35.313815 Z" id="Fill-2"></path>
                    <path d="M110.44006,33.4141426 C108.407557,33.2813124 107.700687,32.8567897 107.700687,30.4147828 L107.700687,0 L98.9091952,2.39995505 L98.9091952,3.32776412 L101.559792,4.6974506 L101.559792,30.4147828 C101.559792,32.8567897 100.852922,33.2813124 98.8204192,33.4141426 L98.8204192,34.8719376 L110.44006,34.8719376 L110.44006,33.4141426" id="Fill-3"></path>
                    <path d="M96.9120695,26.4335474 L95.5430505,26.4335474 C93.6433781,31.4256942 91.668947,33.1491496 87.6169578,33.1491496 L83.92341,33.1491496 L96.558968,12.6499091 L96.558968,11.5452155 L77.9407102,11.5452155 L77.3413055,19.673891 L78.7543787,19.673891 C80.4778341,15.0795674 81.4426888,13.2680035 85.2053217,13.2680035 L89.5343186,13.2680035 L76.5897134,33.85602 L76.5897134,34.8719376 L96.0730364,34.8719376 L96.9120695,26.4335474" id="Fill-4"></path>
                    <path d="M40.6728225,12.6499091 C43.5443582,12.6499091 44.6490518,15.4773905 44.6490518,19.6298367 L35.8135059,19.6298367 C36.1666074,15.565499 37.7572326,12.6499091 40.6728225,12.6499091 Z M40.8937612,35.313815 C45.974684,35.313815 49.1993211,32.309449 50.3480689,27.9360641 L49.6411985,27.538241 C48.0512408,29.8357365 46.0627925,31.116647 43.0584266,31.116647 C38.7290959,31.116647 35.5478455,27.449465 35.72473,21.2645162 L50.1271302,21.2645162 L50.1271302,20.2485986 C50.1271302,14.9467371 47.0346558,11.0152296 41.1146999,11.0152296 C35.0619138,11.0152296 30.2025973,16.2283151 30.2025973,23.7829504 C30.2025973,30.5866611 34.4878737,35.313815 40.8937612,35.313815 L40.8937612,35.313815 Z" id="Fill-5"></path>
                    <path d="M11.6344011,16.2723694 C12.6503186,15.3445603 14.0640593,14.7264659 15.5225218,14.7264659 C19.674968,14.7264659 21.6634164,18.481089 21.6634164,23.9151132 C21.6634164,29.3491374 19.4099751,33.6791355 15.6546845,33.6791355 C12.9600333,33.6791355 11.6344011,31.9563476 11.6344011,28.5982128 L11.6344011,16.2723694 Z M5.49350649,32.2213406 C8.01194075,34.2972299 11.8112855,35.313815 15.6987388,35.313815 C22.5024495,35.313815 27.8483652,30.4097767 27.8483652,21.7504478 C27.8483652,14.9467371 24.4461761,11.0152296 19.0568736,11.0152296 C16.0558452,11.0152296 13.2533945,12.6051873 11.6344011,14.4207562 L11.6344011,0 L2.84290949,2.39995505 L2.84290949,3.32776412 L5.49350649,4.6974506 L5.49350649,32.2213406 L5.49350649,32.2213406 Z" id="Fill-6"></path>
                    <path d="M134.884825,15.2597893 L144.050778,34.8502442 C141.896792,40.960768 137.151616,39.607435 135.524279,38.1042508 C133.239132,39.6698452 133.910959,42.8093775 137.749018,42.8093775 C141.259007,42.8093775 143.884907,39.9064699 145.629388,35.8441346 L154.025393,15.6075508 C154.873771,13.7269018 156.198068,13.2846907 157.487322,12.9349267 L157.487322,11.4571071 L149.1317,11.4571071 L149.1317,12.9349267 C151.773286,13.224283 152.317623,14.4684816 151.461235,16.4185494 L146.878927,28.2270891 L141.577065,15.5337933 C140.806116,13.3420947 142.199498,12.9422691 143.937972,12.9349267 L143.937972,11.4571071 L131.921176,11.4571071 L131.921176,12.9349267 C133.57321,13.3707967 134.306446,13.9775438 134.884825,15.2597893" id="Fill-7"></path>
                    <path d="M159.156377,46.4995879 C107.727053,41.0789135 55.9696574,40.3503498 4.5256481,44.313563 C0.741321826,44.6059229 -0.526238912,47.2501788 0.191645013,49 C53.3891467,43.508238 106.941085,43.0373249 160.137919,47.5872605 C160.299785,46.9791784 160.083852,46.597375 159.156377,46.4995879" id="Fill-8"></path>
                </g>
            </g>
        </g>
    </g>
</svg>